<?xml version="1.0" encoding="UTF-8"?>
<svg id="Layer_1" xmlns="http://www.w3.org/2000/svg" viewBox="0 0 1024 1024">
  <defs>
    <style>.cls-1{fill:#fff;}</style>
  </defs>
  <!-- Document icon without background -->
  <path class="cls-1" d="M595,201c-111.46,1.37-223.09-1.86-334.55.05-2.05.04-3.96-.73-5.78-.67-22.14.72-40.04,15.85-42.71,38.08l.29,561.78c3.79,19.72,19.19,33.06,39.26,34.74l433.02.05c22.32-1.65,39.18-15.82,41.33-38.67l.13-230.87c1.71-14.93,22.97-15.27,27.53-1.53l.51,236.57c-3.12,33.14-28.79,58.92-61.5,63.5H246.46c-32.01-3.93-59.22-28.78-62.5-61.5V232.46c3.55-32.93,32.79-58.73,65.49-60.51h342.08c26.46-.2,41.8,18.44,58.98,35.01,21.3,20.55,42.38,42.04,62.97,63.03,28.05,28.59,44.12,37.31,40.54,82.53-.68,8.65-4.36,17.48-14.54,17.48-4.24,0-13.5-5.03-13.5-9.52v-24.5h-87.5c-17.73,0-43.5-28.87-43.5-46.5v-88.5ZM711,309l-90-91v65.5c0,9.68,13.76,25.5,23.5,25.5h66.5Z"/>
  <!-- Signal path through document -->
  <path class="cls-1" d="M870,423h-97.5c-2.95,0-11.34,2.35-14.72,3.28-48.03,13.24-71.23,65.14-83.7,109.06,13.79,9.08,25.97,21.74,31.41,37.67,16.59,48.62-31.31,98.68-80.47,81.98-7.17,19.44-16.88,38.27-30.54,53.89,7.01,16.44,8.78,31.69,2.79,48.88-14.3,41.07-62.82,59.05-99.59,34.04-37.06-25.21-39.9-76.5-6.98-106.28-12.02-28.28-19.79-59.34-32.52-87.21-4.5-9.85-9.87-19.63-17.68-27.3-17.83,19.7-42.41,27.48-68.46,21.01-11.19,34.96-20.41,70.83-33.29,105.22-11.17,29.83-29.11,67.53-62.22,77.78-9.82,3.04-24.86,1.89-26.45-10.63-2-15.82,12.41-15.74,22.29-20.53,35.4-17.17,50.03-93,61.36-128.64,3.32-10.43,8.85-22.43,11.58-32.41,1.92-7.02.23-4.47-2.84-7.77-30.37-32.76-26.33-81.81,12.61-105.47,52.26-31.76,114.46,19.59,98.02,76.77,23.41,14.58,33.64,42.38,42.91,67.13,7.21,19.25,13.06,39.17,20.01,58.52,17.51-5.64,37.71-2.2,53.3,7.18,1.77,1.07,7.52,6.62,8.66,5.82l21-41.53c-.03-2.61-3.14-3.03-4.48-4.47-42.02-45.03-8.39-114.29,51.37-113.13,13.25-47.61,39.38-100.53,86.77-121.73,42.14-18.85,92.39-8.42,137.36-11.15-7.44-11.79-37.5-26.83-23.4-42.89,6.97-7.94,16.53-6.27,23.92-.12,16.62,13.83,31.44,33.66,48,48,4.97,5.4,4.54,13.74.48,19.53-16.9,13.54-33.17,37.58-49.98,50.02-11.38,8.42-28.13.92-25.97-13.96,1.24-8.52,21.98-22.57,26.94-30.57Z"/>
  <!-- Connection points -->
  <circle class="cls-1" cx="389.29" cy="527.03" r="36.9"/>
  <circle class="cls-1" cx="534.42" cy="736.28" r="36.82"/>
  <circle class="cls-1" cx="641.79" cy="592.71" r="36.69"/>
  <!-- Text lines -->
  <path class="cls-1" d="M272.76,352.26l224.74-.26c18.69,2.02,19.93,26.53,1,29.01h-226c-17.69-2.59-17.63-26.12.26-28.74Z"/>
  <path class="cls-1" d="M270.73,285.23l199.77-.23c15.97,1.82,17.67,25.33,1.02,28.02l-203.24-.81c-12.22-5.97-11.31-23.76,2.45-26.99Z"/>
</svg>
